# xmcd CD database file
#
# Track frame offsets:
#	150
#	11268
#	23359
#	35500
#	56676
#	70514
#	82906
#	98604
#	120150
#	131727
#	142646
#	153142
#	164342
#	174943
#	184931
#	198605
#	215358
#	230336
#
# Disc length: 3277 seconds
#
# Revision: 0
# Processed by: cddbd v1.5PL3 Copyright (c) Steve Scherf et al.
# Submitted via: CDex 1.50Beta6
#
DISCID=d00ccb12
DTITLE=Various Artist - Strictly Blues
DYEAR=1900
DGENRE=Blues
TTITLE0=John Lee Hooker_Boom Boom
TTITLE1=Elmore James_Mean Mistreatin Mama
TTITLE2=John Mayall_Lost And Gone
TTITLE3=Johnny Winter_Going Down Slow
TTITLE4=Eric Clapton_Draggin My Tail
TTITLE5=John Lee Hooker_Baby Lee
TTITLE6=Lightnin Hopkins_Coffee For Mama
TTITLE7=Brownie McGhee and Sonny Terry_Blues For The Lowlands
TTITLE8=Lightning Slim_Lightnings Bad Luck
TTITLE9=Elmore James_Coming Home
TTITLE10=Eric Clapton_West Cost Idea
TTITLE11=Lightning Slim_My Babe
TTITLE12=Lightnin Hopkins_Nothin But The Blues
TTITLE13=Johnny Guitar Watson_Blues Side
TTITLE14=Canned Heat_Louise
TTITLE15=Johnny Winter_Kind Hearted Woman
TTITLE16=Brownie McGhee and Sonny Terry_Walk On
TTITLE17=Jelly Roll Morton_Wolverine Blues
EXTD=
EXTT0=
EXTT1=
EXTT2=
EXTT3=
EXTT4=
EXTT5=
EXTT6=
EXTT7=
EXTT8=
EXTT9=
EXTT10=
EXTT11=
EXTT12=
EXTT13=
EXTT14=
EXTT15=
EXTT16=
EXTT17=
PLAYORDER=
